<svg xmlns="http://www.w3.org/2000/svg" width="100" height="100" viewBox="0 0 300 300"><metadata><rdf:RDF xmlns:rdf="http://www.w3.org/1999/02/22-rdf-syntax-ns#" xmlns:dc="http://purl.org/dc/elements/1.1/"><rdf:Description><dc:creator>RealFaviconGenerator</dc:creator><dc:source>https://realfavicongenerator.net</dc:source></rdf:Description></rdf:RDF></metadata><path d="M60 80 L150 35 L240 80 V200 L220 190 V95 L150 60 L80 95 V235 L60 245 Z" fill="black"></path><path d="M95 105 L150 77 L205 105 V122 L150 95 L95 122 Z" fill="white"></path><path d="M95 145 L150 117 L205 145 L205 158 L150 130 L95 158 Z" fill="#C89B3C"></path><path d="M95 175 L150 147 L205 175 V200 L150 172 L95 200 Z" fill="white"></path><path d="M60 245 L150 200 L240 245 V265 L150 220 L60 265 Z" fill="black"></path><path d="M95 235 L150 207 L205 235 V248 L150 220 L95 248 Z" fill="white"></path></svg>